<?xml version='1.0' encoding='utf-8'?>
<svg xmlns="http://www.w3.org/2000/svg" version="1.1" id="Layer_1" x="0px" y="0px" width="100%" viewBox="0 0 896 896" enable-background="new 0 0 896 896" xml:space="preserve">
<path fill="#FFFFFF" opacity="1.000000" stroke="none" d=" M653.474121,590.422607   C631.684692,623.370544 604.252380,649.758179 570.077454,669.091919   C540.578247,685.780518 509.223145,696.500244 475.479187,700.421448   C423.844788,706.421753 374.252899,699.429199 328.231018,674.975525   C279.984100,649.339600 242.865936,612.126282 220.011642,561.927185   C208.464111,536.563171 202.664856,509.653687 200.603546,481.819946   C198.385010,451.863678 198.638916,421.887634 199.107208,391.920410   C199.484238,367.792572 200.270065,343.631531 202.092972,319.577576   C203.724609,298.047729 204.394852,276.411163 207.662979,255.012054   C209.641983,242.053925 213.913986,229.810349 219.520264,218.066467   C226.262924,203.942108 233.565598,190.085785 240.377853,175.993546   C242.152466,172.322464 244.535477,171.119202 248.303619,171.848740   C252.221893,172.607346 251.983627,175.851425 251.979385,178.536163   C251.965683,187.185028 250.982788,195.798401 251.187805,204.476181   C251.707199,226.460587 260.353790,245.002182 274.282867,261.581451   C282.471405,271.327942 292.481842,279.163330 301.210297,288.319000   C305.784363,293.116943 309.153320,298.518921 309.344299,305.482208   C309.524170,312.038696 307.184784,317.460388 302.719635,322.157349   C296.728790,328.459259 290.088196,334.037445 283.221008,339.302856   C265.895599,352.587250 257.251099,370.671234 254.456985,391.722260   C251.546844,413.647247 257.025787,433.944580 269.853363,451.705048   C283.984161,471.269867 303.435303,481.969849 327.940186,483.040497   C361.030853,484.486237 386.639221,471.487427 403.453613,443.001770   C421.601196,412.257477 419.110657,365.463379 385.267853,341.451538   C369.899597,330.547607 362.651642,316.018311 360.898132,298.242157   C358.974579,278.741974 349.479889,263.379456 336.241089,249.881683   C328.405579,241.892944 320.644165,233.930038 315.057404,224.099899   C309.680389,214.638916 306.816620,204.293045 306.111847,193.676392   C304.764221,173.376877 305.759827,153.070526 308.204132,132.845627   C310.657806,112.542847 321.540497,99.284195 340.929077,92.887413   C349.781189,89.966873 358.574097,86.866356 367.435181,83.973969   C368.948853,83.479889 370.614136,82.896049 372.303619,83.513893   C373.678772,84.893250 373.254059,86.644081 373.285339,88.255089   C373.644104,106.739395 373.688049,125.244019 373.618073,143.712112   C373.556244,160.029465 374.470520,176.316055 374.215515,192.632843   C373.942444,210.108704 386.878693,222.672241 404.461395,222.779999   C408.746674,222.806274 414.140137,224.806259 417.041962,222.022751   C419.941376,219.241547 417.818939,213.826157 417.907135,209.581955   C418.135742,198.586990 417.993225,187.584854 418.128448,176.587189   C418.208618,170.068344 418.628967,169.732544 424.893951,169.723404   C438.392944,169.703720 451.895050,169.873306 465.389343,169.618652   C470.077332,169.530197 471.419525,171.252884 471.354797,175.733627   C471.152466,189.729523 471.397766,203.731567 471.239655,217.728638   C471.196106,221.586746 472.432068,223.342010 476.389313,222.987701   C482.968292,222.398651 489.593506,223.592545 496.149475,221.166061   C505.936157,217.543777 516.249084,205.800507 516.058044,192.148956   C515.605530,159.824402 515.901062,127.489189 515.936157,95.158333   C515.938782,92.700691 515.466797,90.153473 516.648193,87.868637   C518.052490,86.789246 519.301575,87.607239 520.478577,88.070763   C536.901489,94.538277 553.333679,100.983498 569.709717,107.568268   C577.434509,110.674393 578.487854,112.236885 578.290894,120.717239   C577.810974,141.387177 578.335876,162.081528 580.604797,182.568283   C582.368896,198.497101 579.868408,212.775620 570.694519,225.671936   C564.193604,234.810730 555.191833,241.688278 547.104187,249.338715   C532.177734,263.458405 524.655884,280.476471 525.307190,301.013336   C525.651978,311.885345 521.638977,320.833496 513.771240,328.131409   C509.988464,331.640198 506.063477,334.999969 502.129456,338.340698   C482.461029,355.043152 472.107788,376.157166 471.991516,402.075104   C471.834045,437.179932 493.140900,468.455139 525.698242,479.141907   C547.595154,486.329498 569.720825,484.855499 590.094421,473.911377   C620.937500,457.343323 633.899231,430.142090 632.943848,395.842072   C632.278442,371.949890 619.914246,354.062927 602.426208,339.181519   C596.598267,334.222229 590.302368,329.792938 584.782227,324.469025   C572.876282,312.986084 572.720764,299.105316 584.773376,287.727539   C594.946899,278.123688 605.801758,269.149811 614.373840,258.048615   C630.352295,237.355820 638.046509,213.942444 635.752380,187.611710   C635.507446,184.800201 634.870117,182.018829 634.698669,179.206177   C634.542725,176.647614 632.708069,174.275375 633.976135,170.378006   C638.386963,175.108643 642.412964,179.140182 646.117432,183.448181   C664.116333,204.379578 677.053345,227.934723 682.684265,255.169189   C685.317017,267.902557 686.350403,280.872314 686.899536,293.803619   C688.064209,321.227142 690.256958,348.587555 690.661011,376.073303   C690.922791,393.882843 691.575439,411.718445 691.088867,429.509766   C690.170410,463.092712 688.773743,496.682739 680.319763,529.489075   C674.735291,551.160034 664.812866,570.900940 653.474121,590.422607  M502.892273,569.453186   C488.095490,577.834839 472.356964,583.592346 455.377930,585.109497   C430.366058,587.344421 406.660675,582.328186 384.364502,570.824280   C378.162537,567.624329 372.219360,563.925842 366.050812,560.657349   C360.491425,557.711731 355.459778,559.386597 353.707031,564.572632   C352.255646,568.866882 355.117554,571.531677 357.709717,574.088135   C373.802979,589.959717 391.969818,602.638245 413.599854,609.862122   C434.365814,616.797485 455.441986,617.483704 476.567963,612.042236   C497.836792,606.564026 515.461365,594.979431 529.779907,578.389465   C532.814087,574.873962 535.985291,571.388000 537.826660,567.006958   C539.383850,563.302185 539.213257,559.807739 536.140564,556.916931   C533.180481,554.132080 529.682068,553.529785 525.979370,555.177612   C524.016541,556.051086 522.077759,557.122681 520.387817,558.438416   C515.112244,562.545776 509.423187,565.972717 502.892273,569.453186  z" />
<path fill="#FFFFFF" opacity="1.000000" stroke="none" d=" M482.320251,715.051819   C502.040558,713.122925 520.827332,708.821960 539.404968,703.543396   C546.126587,701.633545 552.813965,699.549988 559.381104,697.170715   C563.143311,695.807617 564.792114,696.544922 565.544922,700.571289   C567.857300,712.938538 572.683350,724.460938 578.102295,735.727844   C587.735596,755.757202 601.693359,772.321472 619.127075,785.978699   C627.304138,792.384583 631.453003,800.525574 631.344788,810.967590   C631.292419,816.017029 629.298401,819.933838 625.722534,823.266418   C618.916870,829.609131 610.377808,831.808411 601.567017,832.997375   C595.811035,833.774048 589.951477,834.080872 584.137756,834.086548   C501.502167,834.167053 418.866302,834.234009 336.230896,834.090820   C324.436737,834.070374 312.575104,833.515198 300.872711,832.127808   C290.964203,830.953125 282.611847,825.252136 274.381622,819.882690   C271.514954,818.012451 273.102478,815.321045 274.006012,813.112732   C279.254974,800.284058 285.850189,788.137756 293.843170,776.842346   C309.420990,754.828247 325.217773,732.967896 341.083008,711.159607   C344.164886,706.923218 345.020325,702.900757 342.085876,698.617188   C343.518311,696.817139 344.791840,697.775269 345.939362,698.180603   C385.610901,712.195251 426.375763,718.992126 468.501587,716.686157   C472.974945,716.441345 477.419708,715.674438 482.320251,715.051819  z" />
<path fill="#FFFFFF" opacity="1.000000" stroke="none" d=" M740.684998,455.599182   C732.571716,468.486267 722.349548,477.936554 707.112976,480.675659   C702.197693,481.559265 701.142700,480.877899 701.131714,475.735504   C701.042053,433.797577 700.992310,391.859497 700.979919,349.921478   C700.978210,344.238007 701.854370,343.510529 707.557373,344.733673   C721.561707,347.737305 732.134644,356.027283 739.248474,367.981873   C756.282898,396.607574 756.529663,425.884644 740.684998,455.599182  z" />
<path fill="#FFFFFF" opacity="1.000000" stroke="none" d=" M189.857254,481.366577   C186.551544,484.523407 183.240875,482.460663 180.306747,481.647888   C162.683044,476.765686 152.546371,463.817322 146.119919,447.803497   C136.970245,425.003845 136.804199,401.896973 147.026459,379.348907   C154.086716,363.775543 164.793427,351.594849 182.296646,347.265106   C189.136383,345.573181 190.171051,346.487946 190.173889,353.531342   C190.190369,394.510468 190.200165,435.489563 190.200546,476.468689   C190.200562,477.964020 190.079453,479.459381 189.857254,481.366577  z" />
<path fill="#FFFFFF" opacity="1.000000" stroke="none" d=" M432.015961,125.088501   C418.591003,125.105057 418.573425,125.105034 418.591644,112.274040   C418.608215,100.625175 418.736145,88.975967 418.664032,77.327843   C418.645142,74.276566 419.648834,72.859520 422.812561,72.454285   C437.566010,70.564552 452.315796,70.487793 467.087585,72.078880   C470.052887,72.398270 471.334412,73.977051 471.313324,77.079811   C471.215118,91.558975 471.193054,106.039864 471.320892,120.518578   C471.356140,124.512619 469.248016,125.183800 465.966125,125.158630   C454.815521,125.073143 443.664032,125.102844 432.015961,125.088501  z" />
<path fill="#FFFFFF" opacity="1.000000" stroke="none" d=" M543.126221,429.348969   C518.822327,420.870026 519.867981,393.342224 533.120300,381.953522   C544.619080,372.071808 562.191284,373.192810 573.324646,385.581482   C583.284058,396.663849 581.865784,413.719147 570.242798,423.435455   C562.344604,430.038055 553.336365,431.505188 543.126221,429.348969  z" />
<path fill="#FFFFFF" opacity="1.000000" stroke="none" d=" M315.603119,424.458618   C304.461853,415.256195 304.301117,401.129303 307.533173,393.390045   C312.245758,382.105682 322.907318,375.407471 335.131073,375.739868   C348.199341,376.095245 360.861694,388.447327 361.312592,401.279999   C361.886536,417.613220 352.920349,428.589386 337.764587,430.390625   C329.662231,431.353607 322.273438,430.050171 315.603119,424.458618  z" />
</svg>